<?xml version="1.0" standalone="no"?>
<!DOCTYPE svg PUBLIC "-//W3C//DTD SVG 20010904//EN"
 "http://www.w3.org/TR/2001/REC-SVG-20010904/DTD/svg10.dtd">
<svg version="1.0" xmlns="http://www.w3.org/2000/svg"
 width="700.000000pt" height="700.000000pt" viewBox="0 0 700.000000 700.000000"
 preserveAspectRatio="xMidYMid meet">
<metadata>
Created by potrace 1.14, written by Peter Selinger 2001-2017
</metadata>
<g transform="translate(0.000000,700.000000) scale(0.100000,-0.100000)"
fill="#000000" stroke="none">
<path d="M3375 6989 c-22 -4 -50 -10 -62 -13 -41 -9 -147 -59 -203 -97 -148
-99 -259 -263 -295 -438 -23 -105 -9 -299 25 -378 6 -13 15 -35 22 -50 25 -57
97 -160 144 -207 86 -85 186 -144 310 -182 89 -27 275 -26 376 3 234 68 412
247 484 489 25 83 25 286 0 369 -95 311 -358 511 -676 512 -47 0 -103 -4 -125
-8z"/>
<path d="M1345 6156 c-170 -46 -305 -141 -401 -281 -85 -126 -117 -225 -118
-375 -1 -122 6 -178 31 -244 84 -226 253 -386 478 -451 72 -21 238 -28 315
-14 155 29 318 129 422 259 124 154 178 404 127 589 -29 107 -31 114 -57 161
-99 180 -246 299 -437 355 -94 28 -261 28 -360 1z"/>
<path d="M5389 6176 c-2 -2 -23 -6 -47 -10 -104 -14 -266 -101 -356 -192 -141
-141 -209 -318 -201 -524 9 -269 162 -495 410 -607 119 -54 293 -77 402 -53
21 5 50 11 64 13 43 8 130 48 199 92 149 95 253 241 298 418 26 102 23 272 -6
364 -76 236 -247 404 -482 475 -58 17 -269 35 -281 24z"/>
<path d="M538 4180 c-229 -57 -415 -221 -494 -438 -34 -95 -36 -104 -39 -230
-2 -85 2 -129 17 -184 66 -245 248 -431 493 -503 80 -24 240 -28 328 -10 169
36 334 145 428 281 90 131 128 262 124 422 -3 123 -7 143 -42 232 -80 201
-230 344 -438 415 -107 36 -263 43 -377 15z"/>
<path d="M3352 4184 c-72 -16 -190 -68 -257 -114 -112 -77 -212 -214 -262
-358 -24 -68 -27 -92 -27 -207 0 -142 13 -202 65 -307 91 -186 240 -311 445
-374 82 -25 284 -25 369 0 320 96 523 374 511 701 -5 142 -44 262 -125 377
-90 131 -236 232 -391 273 -83 23 -246 27 -328 9z"/>
<path d="M6125 4176 c-144 -40 -229 -90 -337 -201 -214 -219 -247 -589 -75
-852 128 -197 323 -309 552 -318 119 -5 196 7 284 42 393 155 562 605 369 978
-88 170 -251 301 -438 351 -101 27 -257 27 -355 0z"/>
<path d="M1373 2205 c-228 -51 -418 -214 -506 -436 -112 -286 -16 -618 234
-807 121 -91 244 -134 399 -138 323 -8 581 177 691 496 19 54 23 87 23 195 0
110 -3 141 -24 205 -76 237 -257 413 -489 476 -77 21 -251 25 -328 9z"/>
<path d="M5313 2199 c-126 -31 -253 -106 -347 -204 -73 -77 -157 -240 -174
-337 -4 -24 -6 -95 -6 -158 1 -95 6 -128 28 -193 14 -42 37 -95 51 -117 14
-22 25 -43 25 -46 0 -10 69 -93 110 -132 75 -72 187 -135 295 -167 88 -26 260
-28 354 -4 314 80 532 364 529 688 -6 448 -431 777 -865 670z"/>
<path d="M3340 1380 c-97 -24 -140 -43 -220 -95 -156 -101 -267 -263 -305
-447 -18 -83 -13 -248 10 -323 77 -259 278 -446 538 -501 58 -12 225 -13 272
-1 83 21 117 33 167 57 312 155 462 492 368 827 -63 226 -249 409 -485 478
-89 26 -251 28 -345 5z"/>
</g>
</svg>
