
<svg width="100px" height="100px" viewBox="0 0 100 100" version="1.1" xmlns="http://www.w3.org/2000/svg" xmlns:xlink="http://www.w3.org/1999/xlink">
    <defs>
      <linearGradient id="Gradient" x1="0" x2="0" y1="0" y2="1">
        <stop offset="0%" stop-color="rgb(160, 80, 225)"/>
        <stop offset="100%" stop-color="rgb(90, 90, 235)"/>
      </linearGradient>
    </defs>
    <g id="Page-1" stroke="none" stroke-width="1" fill="none" fill-rule="evenodd">
        <g id="noun_collective_747546" transform="translate(0.000000, -0.000000)" fill="url(#Gradient)" fill-rule="nonzero">
            <g id="Group" transform="translate(0.000000, -0.000000)">
                <path d="M50,1.13686838e-13 C44.4771525,1.13686838e-13 40,4.4771525 40,10 C40,15.5228475 44.4771525,20 50,20 C55.5228475,20 60,15.5228475 60,10 C60,4.4771525 55.5228475,1.13686838e-13 50,1.13686838e-13 Z M78.285156,11.714844 C72.7623085,11.714844 68.285156,16.1919965 68.285156,21.714844 C68.285156,27.2376915 72.7623085,31.714844 78.285156,31.714844 C80.9373209,31.714844 83.48086,30.6612756 85.3562238,28.7859118 C87.2315876,26.910548 88.285156,24.3670089 88.285156,21.714844 C88.285156,19.0626791 87.2315876,16.51914 85.3562238,14.6437762 C83.48086,12.7684124 80.9373209,11.714844 78.285156,11.714844 Z M21.861328,11.716797 C19.1589329,11.6773747 16.5556525,12.7334821 14.644531,14.644531 C12.7690319,16.5199128 11.7153776,19.0635467 11.7153776,21.71582 C11.7153776,24.3680933 12.7690319,26.9117272 14.644531,28.787109 C16.5199128,30.6626081 19.0635467,31.7162624 21.71582,31.7162624 C24.3680933,31.7162624 26.9117272,30.6626081 28.787109,28.787109 C30.6626081,26.9117272 31.7162624,24.3680933 31.7162624,21.71582 C31.7162624,19.0635467 30.6626081,16.5199128 28.787109,14.644531 C26.9472973,12.8047946 24.4628874,11.7545605 21.861328,11.716797 Z M10,40 C4.4771525,40 0,44.4771525 0,50 C0,55.5228475 4.4771525,60 10,60 C15.5228475,60 20,55.5228475 20,50 C20,44.4771525 15.5228475,40 10,40 Z M50.146484,40.001953 C47.4440891,39.9625313 44.8408091,41.018639 42.929688,42.929688 C39.0254527,46.834758 39.0254527,53.165242 42.929688,57.070312 C46.834758,60.9745473 53.165242,60.9745473 57.070312,57.070312 C60.9745473,53.165242 60.9745473,46.834758 57.070312,42.929688 C55.2309829,41.0904187 52.7473643,40.0402226 50.146484,40.001953 L50.146484,40.001953 Z M90.146484,40.001953 C87.4440891,39.9625313 84.8408091,41.018639 82.929688,42.929688 C79.0254527,46.834758 79.0254527,53.165242 82.929688,57.070312 C86.834758,60.9745473 93.165242,60.9745473 97.070312,57.070312 C100.974547,53.165242 100.974547,46.834758 97.070312,42.929688 C95.2309829,41.0904187 92.7473643,40.0402226 90.146484,40.001953 L90.146484,40.001953 Z M21.861328,68.285156 C19.1589328,68.245734 16.5556523,69.3018417 14.644531,71.212891 C12.7690319,73.0882728 11.7153776,75.6319067 11.7153776,78.28418 C11.7153776,80.9364533 12.7690319,83.4800872 14.644531,85.355469 C16.5199128,87.2309681 19.0635467,88.2846224 21.71582,88.2846224 C24.3680933,88.2846224 26.9117272,87.2309681 28.787109,85.355469 C30.6626081,83.4800872 31.7162624,80.9364533 31.7162624,78.28418 C31.7162624,75.6319067 30.6626081,73.0882728 28.787109,71.212891 C26.9472974,69.3731543 24.4628875,68.3229198 21.861328,68.285156 L21.861328,68.285156 Z M78.285156,68.285156 C72.7623085,68.285156 68.285156,72.7623085 68.285156,78.285156 C68.285156,80.9373209 69.3387244,83.48086 71.2140882,85.3562238 C73.089452,87.2315876 75.6329911,88.285156 78.285156,88.285156 C80.9373209,88.285156 83.48086,87.2315876 85.3562238,85.3562238 C87.2315876,83.48086 88.285156,80.9373209 88.285156,78.285156 C88.285156,75.6329911 87.2315876,73.089452 85.3562238,71.2140882 C83.48086,69.3387244 80.9373209,68.285156 78.285156,68.285156 Z M50.146484,80.001953 C47.4440891,79.9625313 44.8408091,81.018639 42.929688,82.929688 C39.0254527,86.834758 39.0254527,93.165242 42.929688,97.070312 C46.834758,100.974547 53.165242,100.974547 57.070312,97.070312 C60.9745473,93.165242 60.9745473,86.834758 57.070312,82.929688 C55.2309829,81.0904187 52.7473643,80.0402226 50.146484,80.001953 Z" id="Shape"></path>
            </g>
        </g>
    </g>
</svg>
